<svg xmlns="http://www.w3.org/2000/svg" xmlns:xlink="http://www.w3.org/1999/xlink" viewBox="0 0 38.37 30.01"><defs><style>.cls-1{fill:#22c7b8;}.cls-2{fill:#4f6466;}.cls-3{fill:url(#linear-gradient);}.cls-4{fill:url(#linear-gradient-2);}.cls-5{fill:url(#linear-gradient-3);}.cls-6{fill:url(#linear-gradient-4);}.cls-7{fill:url(#linear-gradient-5);}.cls-8{fill:url(#linear-gradient-6);}.cls-9{fill:url(#linear-gradient-7);}.cls-10{fill:url(#linear-gradient-8);}.cls-11{fill:url(#linear-gradient-9);}.cls-12{fill:url(#linear-gradient-10);}.cls-13{fill:url(#linear-gradient-11);}.cls-14{fill:url(#linear-gradient-12);}.cls-15{fill:#fff;}.cls-16{fill:#e6e7e8;}</style><linearGradient id="linear-gradient" x1="18.23" y1="10.99" x2="18.23" y2="9.43" gradientUnits="userSpaceOnUse"><stop offset="0" stop-color="#fff" stop-opacity="0.3"/><stop offset="1" stop-color="#fff" stop-opacity="0"/></linearGradient><linearGradient id="linear-gradient-2" x1="18.6" y1="10.99" x2="18.6" y2="9.43" xlink:href="#linear-gradient"/><linearGradient id="linear-gradient-3" x1="17.19" y1="10.99" x2="17.19" y2="9.43" xlink:href="#linear-gradient"/><linearGradient id="linear-gradient-4" x1="18.51" y1="10.99" x2="18.51" y2="9.43" xlink:href="#linear-gradient"/><linearGradient id="linear-gradient-5" x1="19.9" y1="10.99" x2="19.9" y2="9.43" xlink:href="#linear-gradient"/><linearGradient id="linear-gradient-6" x1="19.2" y1="10.99" x2="19.2" y2="9.43" xlink:href="#linear-gradient"/><linearGradient id="linear-gradient-7" x1="19.94" y1="10.99" x2="19.94" y2="9.43" xlink:href="#linear-gradient"/><linearGradient id="linear-gradient-8" x1="16.53" y1="10.99" x2="16.53" y2="9.43" xlink:href="#linear-gradient"/><linearGradient id="linear-gradient-9" x1="20.42" y1="10.99" x2="20.42" y2="9.43" xlink:href="#linear-gradient"/><linearGradient id="linear-gradient-10" x1="20.66" y1="10.99" x2="20.66" y2="9.43" xlink:href="#linear-gradient"/><linearGradient id="linear-gradient-11" x1="19.43" y1="10.99" x2="19.43" y2="9.43" xlink:href="#linear-gradient"/><linearGradient id="linear-gradient-12" x1="20.2" y1="10.99" x2="20.2" y2="9.43" xlink:href="#linear-gradient"/></defs><g id="Layer_2" data-name="Layer 2"><g id="Layer_1-2" data-name="Layer 1"><path class="cls-1" d="M24.14,15.28a22.77,22.77,0,0,0,1.5,1.83L24,17.67a2.68,2.68,0,0,1-1.72.31,4.5,4.5,0,0,1-2.07-1.27,4.81,4.81,0,0,1,0-.76.36.36,0,0,1,.12-.29,13.1,13.1,0,0,1,1.17-.61,5.39,5.39,0,0,1,.69-.11l1.94.25Z"/><path class="cls-2" d="M21.15,9.1a.63.63,0,0,0-.22.07.18.18,0,0,0-.07.05.1.1,0,0,0,0,.13s.07,0,.1,0A.63.63,0,0,0,21.15,9.1Z"/><path class="cls-2" d="M20.68,9a.58.58,0,0,1-.23-.26s0-.05-.05,0a1,1,0,0,0-.3.08.18.18,0,0,0-.1.15.49.49,0,0,1-.08.29.18.18,0,0,1-.1.07.1.1,0,0,1,0-.08A.34.34,0,0,0,19.91,9a.15.15,0,0,0-.17-.17.47.47,0,0,0-.17,0s0,0-.05,0a.23.23,0,0,1,.09-.08.52.52,0,0,1,.21-.07,2.19,2.19,0,0,0,.34-.1.15.15,0,0,0,.1-.15.46.46,0,0,1,.07-.26.06.06,0,0,1,.06,0,.49.49,0,0,0,0,.11.21.21,0,0,0,.17.28c.15,0,.22,0,.3-.15l0-.05s0,0,0,0,0,0,0,0,0,.17.11.2a.39.39,0,0,0,.26,0,.37.37,0,0,1,.38,0,.9.9,0,0,0,.28.13,1.88,1.88,0,0,0,.58,0,.43.43,0,0,0,.4-.43,1.16,1.16,0,0,0,0-.32c0-.06-.05-.1-.12-.09h-.09a.59.59,0,0,1-.37-.06.41.41,0,0,0-.44,0,.83.83,0,0,1-.22.08.38.38,0,0,1-.21,0,.3.3,0,0,1,.11,0,1.14,1.14,0,0,0,.34-.15A.34.34,0,0,0,22,7.46s0-.07-.07-.06a.5.5,0,0,1-.13,0,.17.17,0,0,1-.14,0l0,0A.94.94,0,0,0,22.22,7a2.08,2.08,0,0,0,.24-.57,3.65,3.65,0,0,0,.09-.74.44.44,0,0,0-.29-.47s0,0,0,0a.29.29,0,0,1,.27.12s.05.08.1.06a1,1,0,0,1,.25,0A.11.11,0,0,0,23,5.27a.15.15,0,0,0,0-.14l-.32-.33a.15.15,0,0,0-.19,0,.16.16,0,0,0-.09.17v.12a.36.36,0,0,1-.05-.37s.05-.08,0-.12a.12.12,0,0,0-.13,0l-.14.09a.14.14,0,0,1-.16,0,.56.56,0,0,1-.21-.16s0,0,0,0l.07,0a.32.32,0,0,0,.34,0c.06,0,.07-.06,0-.11l0,0a.79.79,0,0,0-.62,0s-.08.05-.08.09,0,.08-.09.09a.83.83,0,0,0-.54.23c-.11.1-.11.15,0,.24l0,0c.09.07.08.15,0,.2a1.05,1.05,0,0,1-.24.06.48.48,0,0,0-.35.18,2,2,0,0,0-.26.58A.45.45,0,0,0,20,6.6s0,.05,0,.07a.77.77,0,0,0-.07.16s0,.07,0,.09.06,0,.09,0a3.28,3.28,0,0,1,.31-.2c.07,0,.16-.08.23-.14a.24.24,0,0,0,.11-.32,1,1,0,0,1,0-.17.2.2,0,0,1,.09-.18,0,0,0,0,1,0,0,.44.44,0,0,0,.44.54h.06a.41.41,0,0,0,.36-.21,1.17,1.17,0,0,0,.14-.35.55.55,0,0,1,.12-.21A.2.2,0,0,1,22,5.61s0,0,0,.06a.55.55,0,0,0-.16.38.33.33,0,0,1-.13.29.86.86,0,0,0-.14.13s0,.08,0,.11a.3.3,0,0,1,.12.17.2.2,0,0,1,0,.15s0,0,0,0a.31.31,0,0,0-.3-.25l-.3,0a.68.68,0,0,0-.37.07,3.87,3.87,0,0,0-.34.21,3.73,3.73,0,0,1-.46.35.72.72,0,0,0-.29.71c0,.06,0,.13.1.13S19.77,8,19.8,8l0,0a.53.53,0,0,1,.06-.1.21.21,0,0,1,0,.08.4.4,0,0,1-.11.19.17.17,0,0,0,0,.24.27.27,0,0,0,.12.09s0,0,0,0a.22.22,0,0,1-.18-.08c-.07-.09-.14-.08-.23-.05a.42.42,0,0,0-.17.1l-.1.11a.1.1,0,0,1,0-.08.57.57,0,0,1,.25-.21c.1,0,.12-.08.06-.18a.62.62,0,0,1,0-.56.72.72,0,0,0,0-.19s0-.07,0-.08a.75.75,0,0,0-.62.09,5.23,5.23,0,0,0-.61.54.36.36,0,0,0-.11.22.68.68,0,0,0,.28.67.83.83,0,0,0,.25.12.13.13,0,0,1-.13,0l-.14,0s0,0-.06,0,0,0,0,.07l.05.06a.75.75,0,0,0,.32.21,2.09,2.09,0,0,0,.82.11A3.35,3.35,0,0,0,20.68,9C20.73,9,20.72,9,20.68,9ZM22,8.2a.43.43,0,0,1,.31,0s-.06,0-.09,0-.08,0-.09.06,0,.07,0,.1,0,0,0,0-.06,0-.09,0a.4.4,0,0,0-.24,0,.38.38,0,0,1-.32-.1A.55.55,0,0,0,22,8.2Zm-.23-3.13a.3.3,0,0,0-.3.16,1.64,1.64,0,0,1-.27.32.43.43,0,0,0-.11.45s0,0,0,0,0,0-.05,0A.22.22,0,0,1,21,5.88V5.72a.1.1,0,0,0-.08-.09.51.51,0,0,0-.3,0l-.19.08v0a.56.56,0,0,1,.47-.19H21a.23.23,0,0,0,.27-.11.57.57,0,0,0,.13-.21A.13.13,0,0,0,21.32,5,.36.36,0,0,0,21.14,5a.24.24,0,0,1,.23,0,.22.22,0,0,0,.22,0,.42.42,0,0,1,.22,0,1,1,0,0,0,.24,0s0,0,0,0,0,0,0,0A.7.7,0,0,1,21.81,5.07ZM20.26,7.43h0a.66.66,0,0,0,.48,0,1.07,1.07,0,0,1,.56,0l-.23,0a1.89,1.89,0,0,0-.41.1l-.06,0c-.08.05-.08.1,0,.16a.94.94,0,0,0,.23.1.42.42,0,0,1,.27.18s-.05,0-.07,0a1.39,1.39,0,0,0-.26-.1c-.12,0-.16,0-.19.12l-.06.25a.07.07,0,0,1,0-.07,2.09,2.09,0,0,1,0-.25.52.52,0,0,0-.21-.43A1.27,1.27,0,0,0,20,7.41s-.05,0-.07,0A1.24,1.24,0,0,1,20.26,7.43Zm-.9,1.67h-.08a.17.17,0,0,0-.21.11s0,0,0,0,0,0-.05,0,0,0,0,0A.34.34,0,0,0,19,9c-.05-.11-.12-.21-.17-.33l0-.08a.27.27,0,0,0-.3-.22H18.4a.3.3,0,0,1,.22-.06l.1,0c.06,0,.09,0,.11-.06L18.89,8A.2.2,0,0,1,19,7.85a.52.52,0,0,0,.28-.3.12.12,0,0,1,0,.14.74.74,0,0,1-.2.23.29.29,0,0,0-.08.14c0,.14,0,.28-.06.42a.53.53,0,0,0,.46.57l.09,0A.14.14,0,0,1,19.36,9.1Z"/><path class="cls-2" d="M21,9.47a.7.7,0,0,0,.42-.33s0-.05,0-.07-.06,0-.09,0a.1.1,0,0,0,0,.05.77.77,0,0,1-.34.33S21,9.48,21,9.47Z"/><path class="cls-2" d="M21.68,8.72l-.1-.07c-.08-.08-.13-.09-.25,0a.45.45,0,0,1-.42,0,.44.44,0,0,0-.2,0c-.05,0-.07,0-.07.08a.28.28,0,0,0,.27.23,1.37,1.37,0,0,1,.29,0,1,1,0,0,0,.48-.09Q21.76,8.78,21.68,8.72Z"/><path class="cls-2" d="M21.49,9.88l-.07-.07-.07-.07c-.07-.1-.07-.1-.19-.07s-.06,0,0,.08A.4.4,0,0,0,21.49,9.88Z"/><path class="cls-2" d="M17.92,8H17.8a.7.7,0,0,1-.35-.06.09.09,0,0,0-.13,0c-.05,0-.05.07,0,.09a1,1,0,0,0,.39.07.45.45,0,0,0,.2,0s0,0,0,0S17.93,8,17.92,8Z"/><path class="cls-2" d="M16.7,5.92c.05,0,.08,0,.12,0a.8.8,0,0,1,.49-.29.19.19,0,0,1,.19,0l.07.06a.09.09,0,0,0,.15,0,.1.1,0,0,0,0-.12.31.31,0,0,0-.33-.14l-.18,0a.09.09,0,0,1,.06,0,1.18,1.18,0,0,1,.27-.06.21.21,0,0,0,.18-.07A3.07,3.07,0,0,1,18,5,.19.19,0,0,0,18,4.74L18,4.68h0c.18,0,.25-.11.32-.24s0,0,0-.06,0,0-.07,0a.67.67,0,0,0-.23.1,8.13,8.13,0,0,1-.78.52.43.43,0,0,0-.15.15,0,0,0,0,0,0,0,0,0,0,0,0,.06,0l.05,0L17.31,5a.42.42,0,0,1,.34-.1h0l-.2.09a.39.39,0,0,0-.19.17.09.09,0,0,1-.06.06.9.9,0,0,0-.53.53A.08.08,0,0,0,16.7,5.92Z"/><path class="cls-2" d="M24,6.93a.4.4,0,0,1,0,.42s0,.05,0,.06l.16.06c.08,0,.11,0,.11-.1a4.82,4.82,0,0,0-.11-.52c0-.08-.08-.09-.14,0l-.05,0S23.93,6.9,24,6.93Z"/><path class="cls-2" d="M16.63,6.05a.1.1,0,0,0,0,0,0,0,0,0,0,0,0,1.19,1.19,0,0,0-.1.79,3.18,3.18,0,0,1,.14-.61A.45.45,0,0,0,16.63,6.05Z"/><path class="cls-2" d="M20.37,9.39c0-.05-.08,0-.12,0s0,0,0,.06a.54.54,0,0,0,.45.24A.75.75,0,0,1,20.37,9.39Z"/><path class="cls-2" d="M17.32,7.79c-.16-.17-.37-.14-.57-.14,0,0,0,0,0,0a.35.35,0,0,0,.2.15,1.29,1.29,0,0,0,.39,0Z"/><path class="cls-2" d="M18.26,7.67a1.8,1.8,0,0,1,.2-.19l.13-.12s0-.06,0-.08a.68.68,0,0,1-.4-.43s0,0,0,0,0,0,.05,0a1.18,1.18,0,0,0,.27.22c.13.06.24,0,.27-.11a.26.26,0,0,1,.07-.11.42.42,0,0,0,.08-.21V6.44a0,0,0,0,1,0-.05.56.56,0,0,1,0,.49L18.91,7a.09.09,0,0,0,0,.11s.05,0,.08,0a.48.48,0,0,1,.29,0,1.22,1.22,0,0,0,.27,0,.46.46,0,0,0,.33-.32.21.21,0,0,0,0-.23.55.55,0,0,1-.1-.37,2,2,0,0,1,.07-.43.62.62,0,0,1,.32-.42,1.2,1.2,0,0,1,.27-.08.15.15,0,0,0,.13-.11.29.29,0,0,0-.12-.28s0,0,0,0a.17.17,0,0,1,.1,0s.05,0,.07,0a.78.78,0,0,1,.4-.26,1.2,1.2,0,0,0,.27-.08c.1-.06.11-.08,0-.18h0a.11.11,0,0,1,.08,0,.23.23,0,0,0,.14,0s.06,0,0-.09a.24.24,0,0,0-.1,0,.58.58,0,0,0-.32,0,1.07,1.07,0,0,1-.27.06s-.05,0-.06,0,0,0,0,0,.06-.08,0-.11l0,0A1.52,1.52,0,0,0,20,4c-.14,0-.18.11-.16.25v0a.16.16,0,0,1-.1-.14.08.08,0,0,0-.1-.07.33.33,0,0,0-.25.16.09.09,0,0,1-.09.06.57.57,0,0,0-.28.06l-.09,0s0,0,0-.07a.36.36,0,0,1,.26-.11.19.19,0,0,0,.13-.07s0,0,0,0,0,0,0,0l-.26,0c-.19,0-.37.1-.56.15a.21.21,0,0,0-.1.06s-.08.06-.05.11.07,0,.1,0a.3.3,0,0,1,.33.2A.44.44,0,0,1,19,4.6s0,0,0,.05a.53.53,0,0,0-.16.23.15.15,0,0,0,.05.21,1.52,1.52,0,0,1,.22.22.18.18,0,0,0,.21,0,.13.13,0,0,0,.08-.17.65.65,0,0,1,0-.39.48.48,0,0,0,0-.31h0v0a.41.41,0,0,1,0,.34.49.49,0,0,0,0,.29.11.11,0,0,0,.11.09.46.46,0,0,0,.32-.13S19.91,5,20,5a.27.27,0,0,1-.07.13,1.14,1.14,0,0,1-.37.22.78.78,0,0,0-.2.11.11.11,0,0,0,0,.14.5.5,0,0,1,0,.38.17.17,0,0,0,0,.17l.07.12a.47.47,0,0,1,.05.29.34.34,0,0,1-.05-.11.32.32,0,0,0-.47-.22h0a2,2,0,0,1-.62.17.36.36,0,0,0-.31.21.42.42,0,0,1-.17.18l-.13.1a.2.2,0,0,0,0,.31,1,1,0,0,0,.17.1l.26.09a.61.61,0,0,1-.3,0,.51.51,0,0,1-.35-.25A.32.32,0,0,0,17.15,7,.7.7,0,0,1,17,6.94a.21.21,0,0,1-.14-.15.47.47,0,0,0,.22.09.61.61,0,0,0,.4,0c.07,0,.07-.07,0-.11a.31.31,0,0,1-.09-.07s-.05-.06,0-.1l0,0a.3.3,0,0,0,.49-.07.37.37,0,0,1,.32-.2h.13a.76.76,0,0,0,.44-.16A1.82,1.82,0,0,1,19,6l.1,0a.22.22,0,0,0,.07-.33L19,5.43a.61.61,0,0,0-.31-.3A.09.09,0,0,1,18.66,5a.88.88,0,0,1,.05-.15c0-.12,0-.24-.09-.25a.44.44,0,0,0-.43.09.14.14,0,0,0-.05.15c0,.06.08.06.13.07a.14.14,0,0,1,.11,0s0,0-.06,0a.65.65,0,0,0-.28.08.47.47,0,0,0-.25.39c0,.09,0,.12.12.1a.51.51,0,0,1,.45,0,.34.34,0,0,0,.17,0h.17a.32.32,0,0,1-.27.06,2.17,2.17,0,0,0-.24-.07c-.19,0-.35,0-.37.23a.33.33,0,0,1-.09.23s0,0,0,0,0,0,0-.05,0-.1,0-.15,0,0,0,0a.17.17,0,0,1-.12,0l-.11-.11a.14.14,0,0,0-.18,0,1.1,1.1,0,0,0-.6.65.58.58,0,0,0,0,.39s0,0,0,0-.08.08-.08.14a1.47,1.47,0,0,0,0,.47.26.26,0,0,0,.23.19c.14,0,.19,0,.24-.15s0-.08.06-.1a0,0,0,0,1,0,0,.25.25,0,0,0,.14.28,1.33,1.33,0,0,0,.47.21A.45.45,0,0,0,18.26,7.67Zm1.51-3s0,0-.05,0a.2.2,0,0,1,.14-.08c.05,0,.11,0,.14,0s0-.09,0-.13a.31.31,0,0,1,.17-.26.26.26,0,0,1-.05.09.23.23,0,0,0,0,.2s0,.08.09.09a.11.11,0,0,0,.12-.06.69.69,0,0,1,.11-.13.32.32,0,0,1,.19-.05v0a.68.68,0,0,0-.36.45s0,0,0,0A.41.41,0,0,0,19.77,4.64ZM17,6.3a.71.71,0,0,1,.14-.1s.05,0,0-.08a.28.28,0,0,1,0-.18s0,0,0,0,0,0,0,0a.49.49,0,0,0,.24.25s0,0,0,0h0a1,1,0,0,0-.54.29l0,0A.41.41,0,0,1,17,6.3Z"/><path class="cls-2" d="M21.69,9.1s0,0,0-.06-.15,0-.16.05a.85.85,0,0,1-.34.41.72.72,0,0,0,.2-.09A.78.78,0,0,0,21.69,9.1Z"/><path class="cls-2" d="M22.94,9.52a1.16,1.16,0,0,0-.47-.2.89.89,0,0,0,.29.22l.12,0a.06.06,0,0,0,.07,0S23,9.53,22.94,9.52Z"/><path class="cls-2" d="M23.15,9.11A2.66,2.66,0,0,0,22.6,9a1,1,0,0,0-.45,0l.36,0a1.42,1.42,0,0,1,.6.2s.05,0,.06,0S23.21,9.14,23.15,9.11Z"/><path class="cls-2" d="M23.07,9.32,23,9.25a2.36,2.36,0,0,0-.9-.17h-.11s-.05,0-.05,0,0,0,.05,0a2.58,2.58,0,0,1,.39,0,1.46,1.46,0,0,1,.67.24s.06,0,.08,0S23.11,9.35,23.07,9.32Z"/><path class="cls-1" d="M25.38,7.12a4.88,4.88,0,0,0-1.13-2.2,5.73,5.73,0,0,0-1.09-1,4.52,4.52,0,0,0-1.31-.58,6.42,6.42,0,0,0-1.38-.23l-.08,0H19.18l-.49.08a4.82,4.82,0,0,0-1.61.56,4.45,4.45,0,0,0-1.86,2,3.89,3.89,0,0,0-.33,1.94,1.87,1.87,0,0,0,.19.65,1,1,0,0,1,0,1c-.22.39-.42.79-.6,1.19s0,.61.4.66c.19,0,.24.07.23.27s0,.3,0,.46a.28.28,0,0,0,.19.31c.09,0,.11.1.06.19a.33.33,0,0,0,.05.39,1.07,1.07,0,0,1,.19.88c-.06.47.08.65.54.76a3.34,3.34,0,0,0,1.18,0,2,2,0,0,1,.73,0,.88.88,0,0,1,.65.47c.27.54.55,1.08.79,1.64a2,2,0,0,1,.21.6h.07a1.64,1.64,0,0,1,.22-.39l.21-.3c.08.08.07.45.07.45s.48-.17.6-.2.65-.12.75-.12,1.12-.33,1.36-.4a7.85,7.85,0,0,0,1.19-.87,5.52,5.52,0,0,1-.59-1.67s0-.11,0-.16a2.79,2.79,0,0,1,.14-1.78,7,7,0,0,1,.73-1.2,8.07,8.07,0,0,0,.89-1.6A3,3,0,0,0,25.38,7.12ZM24.21,8.66a.94.94,0,0,1-.38.41.77.77,0,0,1-.4.07c-.06,0-.09,0-.1.08a1,1,0,0,1-.19.39.79.79,0,0,1-.45.26,3.7,3.7,0,0,1-.57.07l-.35,0a.06.06,0,0,0-.05.08,1.16,1.16,0,0,0,.18.35c0,.06.06.11.09.18a.14.14,0,0,1,0,.16.59.59,0,0,1-.38.14c-.06,0-.08-.05-.11-.09a4.35,4.35,0,0,0-.62-.73,3,3,0,0,0-.26-.24l-.06,0a.66.66,0,0,1-.36-.28c0-.05-.06-.06-.12,0a1.9,1.9,0,0,1-1.33-.05,2.22,2.22,0,0,1-.32-.14.59.59,0,0,1-.29-.54A.83.83,0,0,0,18,8.32c0-.05,0-.06-.08-.06a2.35,2.35,0,0,1-.87-.16,1.05,1.05,0,0,1-.67-.75,2.58,2.58,0,0,1-.11-.73,2.27,2.27,0,0,1,.44-1.28,2.94,2.94,0,0,1,.36-.42,3.37,3.37,0,0,1,1.41-.8,8.7,8.7,0,0,1,1.24-.22h.39A4.66,4.66,0,0,1,21.38,4a3.27,3.27,0,0,1,1.52.79,5.1,5.1,0,0,1,.47.46,5.88,5.88,0,0,1,.65.92,3.34,3.34,0,0,1,.42,1.22A1.84,1.84,0,0,1,24.21,8.66Z"/><path class="cls-2" d="M24.06,7.55s-.06,0-.06,0a.33.33,0,0,1-.06.22.16.16,0,0,1-.07.07h0s0,0,0,0a.3.3,0,0,0,0-.35.06.06,0,0,1,0-.07.5.5,0,0,0,.08-.2.22.22,0,0,0-.1-.25s0,0,0-.08A.43.43,0,0,0,24,6.48a.42.42,0,0,0,0-.16.23.23,0,0,0-.39-.06,2.15,2.15,0,0,1-.18.24.22.22,0,0,1-.24.07.21.21,0,0,1-.17-.2l0-.26a.26.26,0,0,0-.08-.21s0,0,0,0,0,0,0,0a.27.27,0,0,1,.14.2c0,.06,0,.06.08,0a.21.21,0,0,0,.12-.18.46.46,0,0,0,0-.2.26.26,0,0,1,0,.44c-.06,0-.09.09-.07.15a.13.13,0,0,0,.15.11.2.2,0,0,0,.19-.16c.05-.2.05-.2.26-.22.06,0,.09,0,0-.1a2.17,2.17,0,0,0-.24-.29,1.22,1.22,0,0,0-.67-.25c-.11,0-.16,0-.16.16a1.51,1.51,0,0,1,0,.3,5.21,5.21,0,0,0-.08.55.68.68,0,0,0,.34.63.37.37,0,0,0,.53-.16.83.83,0,0,0,0-.15s0-.06,0-.06,0,0,0,.05a1.19,1.19,0,0,1,.05.53,1,1,0,0,1-.23.6s0,0-.05,0,0-.05,0-.07a1.78,1.78,0,0,0,.16-.68s0-.06,0-.08a.07.07,0,0,0-.09,0,.44.44,0,0,0-.17.21.65.65,0,0,1-.22.25.1.1,0,0,1,0-.08.63.63,0,0,0,.12-.23c0-.06,0-.07-.05-.07l-.12,0a.62.62,0,0,1-.39-.28s0-.08-.09-.08-.06.06-.08.09h0a1.33,1.33,0,0,1-.23.38.49.49,0,0,0-.11.29.12.12,0,0,0,.07.11,1.42,1.42,0,0,0,.81.12.81.81,0,0,0,.22-.07s0,0,0,0,0,0,0,0a.54.54,0,0,1-.16.1.16.16,0,0,0-.08.06.28.28,0,0,0,.22.37.59.59,0,0,0,.55-.23.11.11,0,0,1,.05,0,.4.4,0,0,1-.11.19.58.58,0,0,1-.6.17s-.06,0-.07,0a.56.56,0,0,1-.09.21.2.2,0,0,0,.1.29,1,1,0,0,0,.63.06A.6.6,0,0,0,24,8.72s0-.07,0-.11a.09.09,0,0,0-.11,0l-.13,0a.2.2,0,0,0-.12.1.36.36,0,0,1-.26.14s0,0,.06-.06l.07-.06c.05-.05,0-.07,0-.1a.23.23,0,0,1-.11-.09h0a.39.39,0,0,0,.39-.06.06.06,0,0,1,.07,0,.26.26,0,0,0,.28-.09.23.23,0,0,0,0-.27A.67.67,0,0,0,24,8a.32.32,0,0,1,.22.09c.06,0,.07,0,.09,0a1,1,0,0,0,0-.17A.36.36,0,0,0,24.06,7.55Z"/><path class="cls-2" d="M21.45,10a.39.39,0,0,1-.34-.11.24.24,0,0,0-.25-.06c.08.08.14.17.21.24a2.88,2.88,0,0,1,.39.46.69.69,0,0,0,.11.13.15.15,0,0,0,.22,0c.08-.07.09-.11,0-.21l0-.05a1.63,1.63,0,0,1-.23-.35A.07.07,0,0,0,21.45,10Z"/><path class="cls-2" d="M22.33,9.31a.08.08,0,0,0-.06,0l-.25,0s0,0,0,0a1.53,1.53,0,0,0,.69.39,0,0,0,0,0,.06,0l0,0A1.21,1.21,0,0,1,22.33,9.31Z"/><path class="cls-2" d="M21.62,9.47s0,0-.05,0,0,0,0,0l.08.07a.64.64,0,0,0,.54.21h.16a2.09,2.09,0,0,1-.7-.3Z"/><path class="cls-2" d="M21.91,9.31c-.05-.07-.08-.07-.14,0l0,0s0,.05,0,.08l.27.15a1,1,0,0,0,.45.13l-.05,0A1.19,1.19,0,0,1,21.91,9.31Z"/><path class="cls-2" d="M21.42,9.57s0,0,0,.06a.46.46,0,0,0,.22.19.22.22,0,0,0,.17,0,1.56,1.56,0,0,1-.34-.27S21.43,9.56,21.42,9.57Z"/><path class="cls-2" d="M20.71,9.38c-.07-.1-.07-.1-.18-.07s-.06,0,0,.08a.73.73,0,0,0,.4.25A1.88,1.88,0,0,1,20.71,9.38Z"/><path class="cls-3" d="M18.36,8.65a.14.14,0,0,0-.16-.12H18a.73.73,0,0,0,.23.28.65.65,0,0,0,.22.11.52.52,0,0,1-.06-.13A.56.56,0,0,1,18.36,8.65Z"/><path class="cls-4" d="M18.88,7.46A.16.16,0,0,1,19,7.35h0a.15.15,0,0,1,.13.07.08.08,0,0,1,0,0l0,0a.29.29,0,0,0,0-.09h-.14a.61.61,0,0,0-.35.11,4.8,4.8,0,0,0-.68.59.26.26,0,0,0-.07.16.19.19,0,0,0,0,.08l0,0a.53.53,0,0,1,.3-.09h.13l.06-.22a.35.35,0,0,1,.16-.23A.39.39,0,0,0,18.88,7.46Z"/><path class="cls-5" d="M16.86,8a1.19,1.19,0,0,0,.45.08A.59.59,0,0,0,17.54,8s0,0,0,0,0,0,0,0a.22.22,0,0,0-.14,0A.83.83,0,0,1,17,7.88a.14.14,0,0,0-.16,0C16.8,7.93,16.8,8,16.86,8Z"/><path class="cls-6" d="M18.62,9.31a.3.3,0,0,0,0-.17l0,0a.16.16,0,0,1-.06.08l-.11.05.11,0Z"/><path class="cls-7" d="M13.91,10.58a21.61,21.61,0,0,0,5.44.67c.68,0,1.34,0,2-.08a5.12,5.12,0,0,0-.62-.73l-.2-.18-.1-.09A.85.85,0,0,1,20,9.81a2.3,2.3,0,0,1-.68.11,2.7,2.7,0,0,1-.9-.17l0,0A1.74,1.74,0,0,1,18,9.57a.8.8,0,0,1-.41-.74,1,1,0,0,0,0-.37h-.05a2.86,2.86,0,0,1-.95-.19,1.33,1.33,0,0,1-.84-.95,2.75,2.75,0,0,1-.14-.88,2.53,2.53,0,0,1,.54-1.52l.06-.09a3.41,3.41,0,0,1,.36-.41,4,4,0,0,1,1.65-.94,9,9,0,0,1,1.42-.24h.56a5.2,5.2,0,0,1,1.34.13,3.82,3.82,0,0,1,1.77.94l.17.15a4.4,4.4,0,0,1,.38.37,7.9,7.9,0,0,1,.74,1.06A3.8,3.8,0,0,1,25,7.32a2.22,2.22,0,0,1-.28,1.51,1.22,1.22,0,0,1-.49.52,1.07,1.07,0,0,1-.49.11h0a1.27,1.27,0,0,1-.23.47,1.1,1.1,0,0,1-.59.34,3.35,3.35,0,0,1-.53.07h-.19l-.23,0a1.18,1.18,0,0,0,.1.19.64.64,0,0,1,.06.1.68.68,0,0,1,.1.21.28.28,0,0,1,0,.2,21.21,21.21,0,0,0,2.52-.49,8.21,8.21,0,0,0,.89-1.64,3.16,3.16,0,0,0,.12-1.89,5.39,5.39,0,0,0-1.25-2.41,5.74,5.74,0,0,0-1.2-1.1,4.73,4.73,0,0,0-1.42-.64,7.51,7.51,0,0,0-1.54-.25l-.08,0H19l-.3.05-.25,0a5.17,5.17,0,0,0-1.76.61,4.9,4.9,0,0,0-2,2.18,4.26,4.26,0,0,0-.36,2.12,1.82,1.82,0,0,0,.2.67,1.28,1.28,0,0,1,0,1.27C14.23,9.92,14.06,10.26,13.91,10.58Z"/><path class="cls-8" d="M19.36,8.78a.78.78,0,0,1,.24-.09.33.33,0,0,1-.15-.11s0,0,0,0h-.06a.47.47,0,0,0-.14.08l-.07.07,0,0a.15.15,0,0,1-.11,0h0a.14.14,0,0,1-.11-.09.27.27,0,0,1,0-.23.78.78,0,0,1,.35-.29.78.78,0,0,1-.12-.39A.64.64,0,0,1,19,8L18.92,8a.25.25,0,0,0-.05.08.5.5,0,0,1,0,.12,1.87,1.87,0,0,0,0,.32.44.44,0,0,0,.38.49h0a.17.17,0,0,1,0-.1A.41.41,0,0,1,19.36,8.78Z"/><path class="cls-9" d="M19.93,8.6l.06,0h0v0a.71.71,0,0,1,.11-.39.19.19,0,0,1,.18-.1h0V8a.42.42,0,0,0-.18-.36,1.24,1.24,0,0,0-.3-.17.3.3,0,0,1-.14-.11h0a.73.73,0,0,0-.15.5h0a.25.25,0,0,1,.08-.12.14.14,0,0,1,.1,0h0a.18.18,0,0,1,.1.09.28.28,0,0,1,0,.2.74.74,0,0,1-.16.28l0,0s0,0,0,0l.08.06a.19.19,0,0,1,.12.2Z"/><path class="cls-10" d="M16.85,7.77a.74.74,0,0,0-.64-.15s0,0,0,0a.41.41,0,0,0,.22.17,1.14,1.14,0,0,0,.45,0S16.86,7.77,16.85,7.77Z"/><path class="cls-11" d="M20.69,9.93a1,1,0,0,1-.4-.35c0-.06-.09,0-.12,0s0,.05,0,.07A.67.67,0,0,0,20.69,9.93Z"/><path class="cls-12" d="M20.68,9.57c-.08-.12-.08-.12-.21-.08s-.06,0,0,.09a.91.91,0,0,0,.45.28C20.81,9.76,20.74,9.66,20.68,9.57Z"/><path class="cls-13" d="M19.53,9.37a.39.39,0,0,1,.06-.11.26.26,0,0,0,0-.11v0h0a.2.2,0,0,0-.11,0l0,0v0a.14.14,0,0,1-.05.16.38.38,0,0,1-.13.06h.13Z"/><path class="cls-14" d="M20.27,8.93a1.29,1.29,0,0,0-.21.06s0,0,0,0a1.2,1.2,0,0,1,0,.24l.41-.16A.86.86,0,0,1,20.27,8.93Z"/><path class="cls-15" d="M22.88.59a9.07,9.07,0,0,0-9.17,3.57,8.76,8.76,0,0,0,.15,10.62c1.16,1.36,1.38,1.29,2.18,1a5.82,5.82,0,0,1,3.7-.56,6.83,6.83,0,0,0,2.72-.18c.68-.21,1.18,0,.79.46a2.65,2.65,0,0,1-1.66,1c-.24.06-.49.09-.48.37s.63.65,1.79.64a7.42,7.42,0,0,0,3.91-1.56c.18-.1.4-.24.59-.06s0,.47-.25.67a9.85,9.85,0,0,1-8.33,2.88,9.68,9.68,0,0,1-7.34-5,9.64,9.64,0,0,1,3-12.75A9,9,0,0,1,22.88.59Z"/><path class="cls-1" d="M21,1A7.72,7.72,0,0,0,15.8,2.92,8.47,8.47,0,0,1,29.11,9.77a8.33,8.33,0,0,1-3.84,7,8.23,8.23,0,0,0,4.47-7.26A8.71,8.71,0,0,0,21,1Z"/><ellipse class="cls-16" cx="19.99" cy="20.29" rx="6.95" ry="0.28"/><path class="cls-2" d="M22.88.9a9.07,9.07,0,0,0-9.17,3.57,8.75,8.75,0,0,0,.15,10.61c1.16,1.37,1.38,1.3,2.18,1a5.75,5.75,0,0,1,3.7-.56,6.62,6.62,0,0,0,2.72-.19c.68-.2,1.18,0,.79.47a2.6,2.6,0,0,1-1.66,1c-.24.07-.49.1-.48.38s.63.65,1.79.64a7.42,7.42,0,0,0,3.91-1.56c.18-.1.4-.24.59-.06s0,.47-.25.67a9.88,9.88,0,0,1-8.33,2.88,9.73,9.73,0,0,1-7.34-5,9.64,9.64,0,0,1,3-12.75A9,9,0,0,1,22.88.9Z"/><path class="cls-1" d="M4.47,20.3l.06,2.36H4.32a2.4,2.4,0,0,0-.75-1.43,1.86,1.86,0,0,0-1.28-.54,1.17,1.17,0,0,0-.84.28.87.87,0,0,0-.32.66.82.82,0,0,0,.11.42,1.87,1.87,0,0,0,.49.48,10.48,10.48,0,0,0,1.13.62A5,5,0,0,1,4.54,24.3,1.94,1.94,0,0,1,5,25.55a2,2,0,0,1-.69,1.52,2.48,2.48,0,0,1-1.76.64,3.21,3.21,0,0,1-.63-.06,4.85,4.85,0,0,1-.75-.26,1.14,1.14,0,0,0-.41-.1.51.51,0,0,0-.29.1.83.83,0,0,0-.25.32H0V25H.19a3.11,3.11,0,0,0,.89,1.73,2.1,2.1,0,0,0,1.41.59A1.37,1.37,0,0,0,3.43,27a1,1,0,0,0,.21-1.23,1.64,1.64,0,0,0-.4-.45,7.3,7.3,0,0,0-1-.55A7.87,7.87,0,0,1,.88,24a2.5,2.5,0,0,1-.65-.74A1.88,1.88,0,0,1,0,22.34a1.91,1.91,0,0,1,.62-1.45A2.18,2.18,0,0,1,2.2,20.3a2.84,2.84,0,0,1,.66.08,3.12,3.12,0,0,1,.6.23,1.29,1.29,0,0,0,.5.17.25.25,0,0,0,.21-.08,1.1,1.1,0,0,0,.15-.4Z"/><path class="cls-1" d="M8,27.75,6.42,24.12a4.48,4.48,0,0,0-.52-1,.87.87,0,0,0-.41-.27v-.19h2.6v.19a.59.59,0,0,0-.36.1.28.28,0,0,0-.11.22,2.65,2.65,0,0,0,.26.78l.84,1.91.57-1.47a4,4,0,0,0,.31-1.1A.42.42,0,0,0,9.47,23,.73.73,0,0,0,9,22.85v-.19h1.63v.19a.61.61,0,0,0-.39.19,4.93,4.93,0,0,0-.51,1.08L8.36,27.75a7.93,7.93,0,0,1-.79,1.67,1.13,1.13,0,0,1-.9.44,1,1,0,0,1-.7-.25A.8.8,0,0,1,5.7,29a.71.71,0,0,1,.18-.5.63.63,0,0,1,.46-.2.57.57,0,0,1,.42.17.75.75,0,0,1,.17.52.47.47,0,0,0,0,.25.14.14,0,0,0,.12.06.38.38,0,0,0,.27-.15,3.3,3.3,0,0,0,.49-1Z"/><path class="cls-1" d="M13.11,22.66v.63a2.79,2.79,0,0,1,.72-.59,1.6,1.6,0,0,1,.74-.19,1.17,1.17,0,0,1,.79.27,1.23,1.23,0,0,1,.42.65,4.9,4.9,0,0,1,.08,1.15v1.9a1.37,1.37,0,0,0,.11.7c.06.1.2.15.42.18v.19H13.92v-.19a.54.54,0,0,0,.4-.23,1.63,1.63,0,0,0,.08-.65V24.31a3.57,3.57,0,0,0-.05-.76.38.38,0,0,0-.16-.24.37.37,0,0,0-.25-.09c-.29,0-.57.21-.83.64v2.62a1.46,1.46,0,0,0,.1.7.57.57,0,0,0,.38.18v.19H11.12v-.19a.63.63,0,0,0,.44-.2,1.45,1.45,0,0,0,.09-.68V23.72a1.35,1.35,0,0,0-.11-.69.61.61,0,0,0-.42-.18v-.19Z"/><path class="cls-1" d="M19.76,26.83a2.6,2.6,0,0,1-1.6.79,1,1,0,0,1-.7-.28.93.93,0,0,1-.27-.69,1.34,1.34,0,0,1,.48-1,8.9,8.9,0,0,1,2.09-1.19V24a2.42,2.42,0,0,0-.06-.7.5.5,0,0,0-.23-.25.67.67,0,0,0-.37-.11,1,1,0,0,0-.56.15.29.29,0,0,0-.14.22.41.41,0,0,0,.15.27.7.7,0,0,1,.2.44.59.59,0,0,1-.19.43.71.71,0,0,1-.5.18.78.78,0,0,1-.55-.19.63.63,0,0,1-.23-.47,1.09,1.09,0,0,1,.3-.72,1.88,1.88,0,0,1,.83-.52,3.5,3.5,0,0,1,1.11-.19,1.8,1.8,0,0,1,1.1.3,1.41,1.41,0,0,1,.53.64,4.16,4.16,0,0,1,.07,1v1.9a1.74,1.74,0,0,0,0,.42.17.17,0,0,0,.08.12.17.17,0,0,0,.12.05c.09,0,.18-.07.27-.2l.16.13a2.07,2.07,0,0,1-.54.56,1.17,1.17,0,0,1-.64.18,1,1,0,0,1-.65-.2A.9.9,0,0,1,19.76,26.83Zm0-.39V24.81a3.19,3.19,0,0,0-.94.79,1,1,0,0,0-.2.57.65.65,0,0,0,.17.43.5.5,0,0,0,.37.14A1,1,0,0,0,19.76,26.44Z"/><path class="cls-1" d="M24.31,27.05v1.82a1.44,1.44,0,0,0,.06.51.37.37,0,0,0,.19.2,1.28,1.28,0,0,0,.49.06v.2H22.26v-.2a.59.59,0,0,0,.48-.18,1.11,1.11,0,0,0,.11-.62V23.68a1.14,1.14,0,0,0-.12-.66.67.67,0,0,0-.47-.17v-.19h2v.64a1.8,1.8,0,0,1,.52-.54,1.55,1.55,0,0,1,.83-.25,1.6,1.6,0,0,1,1,.34,2.14,2.14,0,0,1,.68.94,3.65,3.65,0,0,1,.23,1.29,3.7,3.7,0,0,1-.24,1.36,2,2,0,0,1-.69.93,1.66,1.66,0,0,1-1,.32,1.72,1.72,0,0,1-.75-.17A1.89,1.89,0,0,1,24.31,27.05Zm0-.53a1.22,1.22,0,0,0,1,.64.55.55,0,0,0,.47-.3A3.52,3.52,0,0,0,26,25.19a3.48,3.48,0,0,0-.3-1.73.6.6,0,0,0-.53-.31c-.35,0-.64.26-.87.76Z"/><path class="cls-1" d="M31.46,22.52l.08,1.67h-.18a2.58,2.58,0,0,0-.66-1,1.12,1.12,0,0,0-.68-.27.49.49,0,0,0-.37.14.46.46,0,0,0-.15.33.39.39,0,0,0,.1.27,5.28,5.28,0,0,0,.94.74,3.77,3.77,0,0,1,1,.88,1.43,1.43,0,0,1,.24.81,1.64,1.64,0,0,1-.2.8,1.38,1.38,0,0,1-.57.6,1.67,1.67,0,0,1-.82.21,2.74,2.74,0,0,1-.94-.22l-.21,0c-.12,0-.22.08-.29.26h-.17l-.09-1.76h.18a2.34,2.34,0,0,0,.64,1,1.26,1.26,0,0,0,.78.34.58.58,0,0,0,.41-.15.51.51,0,0,0,.16-.38.62.62,0,0,0-.16-.43,3.45,3.45,0,0,0-.7-.55,5.86,5.86,0,0,1-1-.85,1.49,1.49,0,0,1-.35-1,1.55,1.55,0,0,1,.39-1A1.42,1.42,0,0,1,30,22.51a1.67,1.67,0,0,1,.77.2.53.53,0,0,0,.23.08.33.33,0,0,0,.15,0,.88.88,0,0,0,.18-.23Z"/><path class="cls-1" d="M34.44,22.66v3.87a1.14,1.14,0,0,0,.12.66.62.62,0,0,0,.47.17v.19H32.4v-.19a.66.66,0,0,0,.48-.19,1.18,1.18,0,0,0,.1-.64V23.68a1.14,1.14,0,0,0-.12-.66.64.64,0,0,0-.46-.17v-.19Zm-.73-2.37a.78.78,0,0,1,.58.24.81.81,0,0,1,.23.57.82.82,0,0,1-.81.81.8.8,0,0,1-.8-.81.81.81,0,0,1,.23-.57A.78.78,0,0,1,33.71,20.29Z"/><path class="cls-1" d="M37.42,20.46v6.07a1.14,1.14,0,0,0,.12.66.62.62,0,0,0,.47.17v.19H35.37v-.19a.67.67,0,0,0,.49-.19,1.18,1.18,0,0,0,.1-.64V21.47a1.12,1.12,0,0,0-.12-.65.67.67,0,0,0-.47-.17v-.19Z"/><path class="cls-2" d="M10.54,29.41H10.4l-.45-.5H9.6v.5H9.5V28.1h.57a.41.41,0,0,1,.43.41.39.39,0,0,1-.42.4Zm-.94-.59h.46a.29.29,0,0,0,.33-.31.3.3,0,0,0-.32-.31H9.6Z"/><path class="cls-2" d="M11,29a.47.47,0,0,1,.47-.48.43.43,0,0,1,.45.52H11.1a.36.36,0,0,0,.38.34.44.44,0,0,0,.33-.14l.06,0a.5.5,0,0,1-.39.18A.45.45,0,0,1,11,29Zm.84,0a.33.33,0,0,0-.37-.35.37.37,0,0,0-.38.35Z"/><path class="cls-2" d="M13.43,28.1v1.31h-.09V29.2a.47.47,0,1,1-.39-.73.43.43,0,0,1,.39.22V28.1Zm-.85.85a.36.36,0,0,0,.38.38.39.39,0,0,0,0-.77A.36.36,0,0,0,12.58,29Z"/><path class="cls-2" d="M14,29a.47.47,0,0,1,.47-.48A.43.43,0,0,1,15,29h-.83a.36.36,0,0,0,.38.34.44.44,0,0,0,.33-.14l.07,0a.5.5,0,0,1-.4.18A.45.45,0,0,1,14,29Zm.84,0a.33.33,0,0,0-.37-.35.37.37,0,0,0-.38.35Z"/><path class="cls-2" d="M15.66,29.41v-.84h-.19v-.08h.19v-.08c0-.18.07-.31.28-.31a.3.3,0,0,1,.18.06l-.05.07a.24.24,0,0,0-.14-.05c-.11,0-.18.07-.18.23v.08h.3v.08h-.3v.84Z"/><path class="cls-2" d="M16.74,28.19a.07.07,0,0,1-.14,0A.07.07,0,1,1,16.74,28.19Zm-.12.29v.93h.09v-.93Z"/><path class="cls-2" d="M17.44,28.49v.16a.36.36,0,0,1,.33-.18.38.38,0,0,1,.41.41v.53h-.09v-.53a.3.3,0,0,0-.33-.32.31.31,0,0,0-.32.33v.52h-.09v-.92Z"/><path class="cls-2" d="M18.92,28.19a.08.08,0,0,1-.15,0A.08.08,0,1,1,18.92,28.19Zm-.13.29v.93h.1v-.93Z"/><path class="cls-2" d="M19.61,28.49v.16a.36.36,0,0,1,.33-.18.38.38,0,0,1,.41.41v.53h-.09v-.53a.3.3,0,0,0-.33-.32.31.31,0,0,0-.32.33v.52h-.09v-.92Z"/><path class="cls-2" d="M21.71,28.45l.06.05-.09.11a.44.44,0,0,1,.11.31.42.42,0,0,1-.25.39.34.34,0,0,1,.25.33c0,.25-.19.37-.43.37a.39.39,0,0,1-.44-.37H21c0,.19.16.28.35.28s.34-.08.34-.28-.17-.28-.34-.28a.45.45,0,0,1,0-.89.47.47,0,0,1,.26.08Zm-.7.47a.34.34,0,0,0,.35.35.35.35,0,0,0,.34-.35.35.35,0,1,0-.69,0Z"/><path class="cls-2" d="M24.84,28.12l.87,1.05V28.12h.09v1.27h0l-.86-1.05v1.05h-.1V28.12Z"/><path class="cls-2" d="M26.35,28.94a.45.45,0,0,1,.46-.46.42.42,0,0,1,.44.51h-.81a.35.35,0,0,0,.37.33.4.4,0,0,0,.32-.14l.07.05a.5.5,0,0,1-.39.18A.44.44,0,0,1,26.35,28.94Zm.82,0a.32.32,0,0,0-.36-.35.36.36,0,0,0-.37.35Z"/><path class="cls-2" d="M28.54,29.39v-.16a.34.34,0,0,1-.32.18.38.38,0,0,1-.41-.4v-.52h.09V29a.29.29,0,0,0,.33.31.31.31,0,0,0,.31-.33v-.5h.09v.9Z"/><path class="cls-2" d="M29.28,28.49v.16a.33.33,0,0,1,.3-.17.36.36,0,0,1,.2.06l0,.07a.3.3,0,0,0-.45.26v.52H29.2v-.9Z"/><path class="cls-2" d="M30.2,28.94a.46.46,0,1,1,.46.47A.45.45,0,0,1,30.2,28.94Zm.83,0a.37.37,0,0,0-.37-.38.36.36,0,0,0-.37.38.35.35,0,0,0,.37.38A.36.36,0,0,0,31,28.94Z"/><path class="cls-2" d="M31.74,28.12v.54a.36.36,0,0,1,.33-.18.35.35,0,0,1,.37.4v.51h-.08v-.51c0-.19-.09-.32-.29-.32a.33.33,0,0,0-.33.34v.49h-.09V28.12Z"/><path class="cls-2" d="M33,28.94a.45.45,0,0,1,.46-.46.42.42,0,0,1,.44.51h-.81a.35.35,0,0,0,.37.33.43.43,0,0,0,.32-.14l.06.05a.46.46,0,0,1-.38.18A.44.44,0,0,1,33,28.94Zm.82,0a.33.33,0,0,0-.36-.35.36.36,0,0,0-.37.35Z"/><path class="cls-2" d="M35.29,28.49v.9H35.2V29.2a.43.43,0,0,1-.37.21.47.47,0,0,1,0-.93.4.4,0,0,1,.37.21v-.2Zm-.83.45a.37.37,0,0,0,.37.38.38.38,0,0,0,0-.75A.36.36,0,0,0,34.46,28.94Z"/><path class="cls-2" d="M36,28.12v1.27h-.09V28.12Z"/><path class="cls-2" d="M36.74,28.22v.27h.31v.08h-.31v.55c0,.12,0,.21.17.21a.33.33,0,0,0,.13,0l0,.07a.41.41,0,0,1-.17.05c-.2,0-.26-.12-.26-.29v-.55h-.19v-.08h.19v-.26Z"/><path class="cls-2" d="M37.67,28.12v.54a.38.38,0,0,1,.7.22v.51h-.09v-.51c0-.19-.08-.32-.29-.32a.32.32,0,0,0-.32.34v.49h-.09V28.12Z"/></g></g></svg>